<svg width="30" height="30" viewBox="0 0 30 30" fill="none" xmlns="http://www.w3.org/2000/svg">
<g filter="url(#filter0_i_19_1092)">
<path d="M13.6364 9.54528C13.6364 8.79217 14.2469 8.18164 15 8.18164C15.7531 8.18164 16.3636 8.79217 16.3636 9.54528V13.6362H20.4546C21.2077 13.6362 21.8182 14.2467 21.8182 14.9998C21.8182 15.753 21.2077 16.3635 20.4546 16.3635H16.3636V20.4544C16.3636 21.2075 15.7531 21.818 15 21.818C14.2469 21.818 13.6364 21.2075 13.6364 20.4544V16.3635H9.54546C8.79234 16.3635 8.18182 15.753 8.18182 14.9998C8.18182 14.2467 8.79235 13.6362 9.54546 13.6362H13.6364V9.54528Z" fill="#1B998B"/>
</g>
<g filter="url(#filter1_i_19_1092)">
<path fill-rule="evenodd" clip-rule="evenodd" d="M30 15C30 23.2842 23.2842 30 15 30C6.71573 30 0 23.2842 0 15C0 6.71573 6.71573 0 15 0C23.2842 0 30 6.71573 30 15ZM2.73659 15C2.73659 21.7729 8.2271 27.2635 15 27.2635C21.7729 27.2635 27.2635 21.7729 27.2635 15C27.2635 8.2271 21.7729 2.73659 15 2.73659C8.2271 2.73659 2.73659 8.2271 2.73659 15Z" fill="#1B998B"/>
</g>
<defs>
<filter id="filter0_i_19_1092" x="8.18182" y="8.18164" width="13.6364" height="17.6362" filterUnits="userSpaceOnUse" color-interpolation-filters="sRGB">
<feFlood flood-opacity="0" result="BackgroundImageFix"/>
<feBlend mode="normal" in="SourceGraphic" in2="BackgroundImageFix" result="shape"/>
<feColorMatrix in="SourceAlpha" type="matrix" values="0 0 0 0 0 0 0 0 0 0 0 0 0 0 0 0 0 0 127 0" result="hardAlpha"/>
<feOffset dy="4"/>
<feGaussianBlur stdDeviation="2"/>
<feComposite in2="hardAlpha" operator="arithmetic" k2="-1" k3="1"/>
<feColorMatrix type="matrix" values="0 0 0 0 0 0 0 0 0 0 0 0 0 0 0 0 0 0 0.25 0"/>
<feBlend mode="normal" in2="shape" result="effect1_innerShadow_19_1092"/>
</filter>
<filter id="filter1_i_19_1092" x="0" y="0" width="30" height="34" filterUnits="userSpaceOnUse" color-interpolation-filters="sRGB">
<feFlood flood-opacity="0" result="BackgroundImageFix"/>
<feBlend mode="normal" in="SourceGraphic" in2="BackgroundImageFix" result="shape"/>
<feColorMatrix in="SourceAlpha" type="matrix" values="0 0 0 0 0 0 0 0 0 0 0 0 0 0 0 0 0 0 127 0" result="hardAlpha"/>
<feOffset dy="4"/>
<feGaussianBlur stdDeviation="2"/>
<feComposite in2="hardAlpha" operator="arithmetic" k2="-1" k3="1"/>
<feColorMatrix type="matrix" values="0 0 0 0 0 0 0 0 0 0 0 0 0 0 0 0 0 0 0.25 0"/>
<feBlend mode="normal" in2="shape" result="effect1_innerShadow_19_1092"/>
</filter>
</defs>
</svg>
