<svg width="300" height="200" viewBox="0 0 300 200" fill="none" xmlns="http://www.w3.org/2000/svg">
<g clip-path="url(#clip0_19_887)">
<path d="M68.1393 5.19731C69.6064 5.19731 70.7958 4.03386 70.7958 2.59866C70.7958 1.16346 69.6064 0 68.1393 0C66.6721 0 65.4827 1.16346 65.4827 2.59866C65.4827 4.03386 66.6721 5.19731 68.1393 5.19731Z" fill="#093631"/>
<path d="M81.5868 5.19731C83.054 5.19731 84.2433 4.03386 84.2433 2.59866C84.2433 1.16346 83.054 0 81.5868 0C80.1196 0 78.9302 1.16346 78.9302 2.59866C78.9302 4.03386 80.1196 5.19731 81.5868 5.19731Z" fill="#093631"/>
<path d="M95.0344 5.19731C96.5016 5.19731 97.691 4.03386 97.691 2.59866C97.691 1.16346 96.5016 0 95.0344 0C93.5672 0 92.3778 1.16346 92.3778 2.59866C92.3778 4.03386 93.5672 5.19731 95.0344 5.19731Z" fill="#093631"/>
<path d="M108.482 5.19731C109.949 5.19731 111.138 4.03386 111.138 2.59866C111.138 1.16346 109.949 0 108.482 0C107.015 0 105.825 1.16346 105.825 2.59866C105.825 4.03386 107.015 5.19731 108.482 5.19731Z" fill="#093631"/>
<path d="M121.93 5.19731C123.397 5.19731 124.586 4.03386 124.586 2.59866C124.586 1.16346 123.397 0 121.93 0C120.462 0 119.273 1.16346 119.273 2.59866C119.273 4.03386 120.462 5.19731 121.93 5.19731Z" fill="#093631"/>
<path d="M68.1393 18.5169C69.6064 18.5169 70.7958 17.3534 70.7958 15.9182C70.7958 14.483 69.6064 13.3196 68.1393 13.3196C66.6721 13.3196 65.4827 14.483 65.4827 15.9182C65.4827 17.3534 66.6721 18.5169 68.1393 18.5169Z" fill="#093631"/>
<path d="M81.5868 18.5169C83.054 18.5169 84.2433 17.3534 84.2433 15.9182C84.2433 14.483 83.054 13.3196 81.5868 13.3196C80.1196 13.3196 78.9302 14.483 78.9302 15.9182C78.9302 17.3534 80.1196 18.5169 81.5868 18.5169Z" fill="#093631"/>
<path d="M95.0344 18.5169C96.5016 18.5169 97.691 17.3534 97.691 15.9182C97.691 14.483 96.5016 13.3196 95.0344 13.3196C93.5672 13.3196 92.3778 14.483 92.3778 15.9182C92.3778 17.3534 93.5672 18.5169 95.0344 18.5169Z" fill="#093631"/>
<path d="M108.482 18.5169C109.949 18.5169 111.138 17.3534 111.138 15.9182C111.138 14.483 109.949 13.3196 108.482 13.3196C107.015 13.3196 105.825 14.483 105.825 15.9182C105.825 17.3534 107.015 18.5169 108.482 18.5169Z" fill="#093631"/>
<path d="M121.93 18.5169C123.397 18.5169 124.586 17.3534 124.586 15.9182C124.586 14.483 123.397 13.3196 121.93 13.3196C120.462 13.3196 119.273 14.483 119.273 15.9182C119.273 17.3534 120.462 18.5169 121.93 18.5169Z" fill="#093631"/>
<path d="M148.825 18.5169C150.292 18.5169 151.481 17.3534 151.481 15.9182C151.481 14.483 150.292 13.3196 148.825 13.3196C147.357 13.3196 146.168 14.483 146.168 15.9182C146.168 17.3534 147.357 18.5169 148.825 18.5169Z" fill="#093631"/>
<path d="M68.1393 31.8362C69.6064 31.8362 70.7958 30.6728 70.7958 29.2376C70.7958 27.8024 69.6064 26.6389 68.1393 26.6389C66.6721 26.6389 65.4827 27.8024 65.4827 29.2376C65.4827 30.6728 66.6721 31.8362 68.1393 31.8362Z" fill="#093631"/>
<path d="M81.5868 31.8362C83.054 31.8362 84.2433 30.6728 84.2433 29.2376C84.2433 27.8024 83.054 26.6389 81.5868 26.6389C80.1196 26.6389 78.9302 27.8024 78.9302 29.2376C78.9302 30.6728 80.1196 31.8362 81.5868 31.8362Z" fill="#093631"/>
<path d="M95.0344 31.8362C96.5016 31.8362 97.691 30.6728 97.691 29.2376C97.691 27.8024 96.5016 26.6389 95.0344 26.6389C93.5672 26.6389 92.3778 27.8024 92.3778 29.2376C92.3778 30.6728 93.5672 31.8362 95.0344 31.8362Z" fill="#093631"/>
<path d="M108.482 31.8362C109.949 31.8362 111.138 30.6728 111.138 29.2376C111.138 27.8024 109.949 26.6389 108.482 26.6389C107.015 26.6389 105.825 27.8024 105.825 29.2376C105.825 30.6728 107.015 31.8362 108.482 31.8362Z" fill="#093631"/>
<path d="M121.93 31.8362C123.397 31.8362 124.586 30.6728 124.586 29.2376C124.586 27.8024 123.397 26.6389 121.93 26.6389C120.462 26.6389 119.273 27.8024 119.273 29.2376C119.273 30.6728 120.462 31.8362 121.93 31.8362Z" fill="#093631"/>
<path d="M68.1393 45.1558C69.6064 45.1558 70.7958 43.9924 70.7958 42.5572C70.7958 41.122 69.6064 39.9585 68.1393 39.9585C66.6721 39.9585 65.4827 41.122 65.4827 42.5572C65.4827 43.9924 66.6721 45.1558 68.1393 45.1558Z" fill="#093631"/>
<path d="M81.5868 45.1558C83.054 45.1558 84.2433 43.9924 84.2433 42.5572C84.2433 41.122 83.054 39.9585 81.5868 39.9585C80.1196 39.9585 78.9302 41.122 78.9302 42.5572C78.9302 43.9924 80.1196 45.1558 81.5868 45.1558Z" fill="#093631"/>
<path d="M95.0344 45.1558C96.5016 45.1558 97.691 43.9924 97.691 42.5572C97.691 41.122 96.5016 39.9585 95.0344 39.9585C93.5672 39.9585 92.3778 41.122 92.3778 42.5572C92.3778 43.9924 93.5672 45.1558 95.0344 45.1558Z" fill="#093631"/>
<path d="M108.482 45.1558C109.949 45.1558 111.138 43.9924 111.138 42.5572C111.138 41.122 109.949 39.9585 108.482 39.9585C107.015 39.9585 105.825 41.122 105.825 42.5572C105.825 43.9924 107.015 45.1558 108.482 45.1558Z" fill="#093631"/>
<path d="M121.93 45.1558C123.397 45.1558 124.586 43.9924 124.586 42.5572C124.586 41.122 123.397 39.9585 121.93 39.9585C120.462 39.9585 119.273 41.122 119.273 42.5572C119.273 43.9924 120.462 45.1558 121.93 45.1558Z" fill="#093631"/>
<path d="M135.377 45.1558C136.844 45.1558 138.034 43.9924 138.034 42.5572C138.034 41.122 136.844 39.9585 135.377 39.9585C133.91 39.9585 132.72 41.122 132.72 42.5572C132.72 43.9924 133.91 45.1558 135.377 45.1558Z" fill="#093631"/>
<path d="M148.825 45.1558C150.292 45.1558 151.481 43.9924 151.481 42.5572C151.481 41.122 150.292 39.9585 148.825 39.9585C147.357 39.9585 146.168 41.122 146.168 42.5572C146.168 43.9924 147.357 45.1558 148.825 45.1558Z" fill="#093631"/>
<path d="M162.272 45.1558C163.739 45.1558 164.929 43.9924 164.929 42.5572C164.929 41.122 163.739 39.9585 162.272 39.9585C160.805 39.9585 159.616 41.122 159.616 42.5572C159.616 43.9924 160.805 45.1558 162.272 45.1558Z" fill="#093631"/>
<path d="M175.72 45.1558C177.187 45.1558 178.376 43.9924 178.376 42.5572C178.376 41.122 177.187 39.9585 175.72 39.9585C174.253 39.9585 173.063 41.122 173.063 42.5572C173.063 43.9924 174.253 45.1558 175.72 45.1558Z" fill="#093631"/>
<path d="M189.167 45.1558C190.635 45.1558 191.824 43.9924 191.824 42.5572C191.824 41.122 190.635 39.9585 189.167 39.9585C187.7 39.9585 186.511 41.122 186.511 42.5572C186.511 43.9924 187.7 45.1558 189.167 45.1558Z" fill="#093631"/>
<path d="M121.93 58.4751C123.397 58.4751 124.586 57.3117 124.586 55.8765C124.586 54.4413 123.397 53.2778 121.93 53.2778C120.462 53.2778 119.273 54.4413 119.273 55.8765C119.273 57.3117 120.462 58.4751 121.93 58.4751Z" fill="#093631"/>
<path d="M135.377 58.4751C136.844 58.4751 138.034 57.3117 138.034 55.8765C138.034 54.4413 136.844 53.2778 135.377 53.2778C133.91 53.2778 132.72 54.4413 132.72 55.8765C132.72 57.3117 133.91 58.4751 135.377 58.4751Z" fill="#093631"/>
<path d="M148.825 58.4751C150.292 58.4751 151.481 57.3117 151.481 55.8765C151.481 54.4413 150.292 53.2778 148.825 53.2778C147.357 53.2778 146.168 54.4413 146.168 55.8765C146.168 57.3117 147.357 58.4751 148.825 58.4751Z" fill="#093631"/>
<path d="M162.272 58.4751C163.739 58.4751 164.929 57.3117 164.929 55.8765C164.929 54.4413 163.739 53.2778 162.272 53.2778C160.805 53.2778 159.616 54.4413 159.616 55.8765C159.616 57.3117 160.805 58.4751 162.272 58.4751Z" fill="#093631"/>
<path d="M175.72 58.4751C177.187 58.4751 178.376 57.3117 178.376 55.8765C178.376 54.4413 177.187 53.2778 175.72 53.2778C174.253 53.2778 173.063 54.4413 173.063 55.8765C173.063 57.3117 174.253 58.4751 175.72 58.4751Z" fill="#093631"/>
<path d="M189.167 58.4751C190.635 58.4751 191.824 57.3117 191.824 55.8765C191.824 54.4413 190.635 53.2778 189.167 53.2778C187.7 53.2778 186.511 54.4413 186.511 55.8765C186.511 57.3117 187.7 58.4751 189.167 58.4751Z" fill="#093631"/>
<path d="M121.93 71.7947C123.397 71.7947 124.586 70.6313 124.586 69.1961C124.586 67.7609 123.397 66.5974 121.93 66.5974C120.462 66.5974 119.273 67.7609 119.273 69.1961C119.273 70.6313 120.462 71.7947 121.93 71.7947Z" fill="#093631"/>
<path d="M135.377 71.7947C136.844 71.7947 138.034 70.6313 138.034 69.1961C138.034 67.7609 136.844 66.5974 135.377 66.5974C133.91 66.5974 132.72 67.7609 132.72 69.1961C132.72 70.6313 133.91 71.7947 135.377 71.7947Z" fill="#093631"/>
<path d="M148.825 71.7947C150.292 71.7947 151.481 70.6313 151.481 69.1961C151.481 67.7609 150.292 66.5974 148.825 66.5974C147.357 66.5974 146.168 67.7609 146.168 69.1961C146.168 70.6313 147.357 71.7947 148.825 71.7947Z" fill="#093631"/>
<path d="M162.272 71.7947C163.739 71.7947 164.929 70.6313 164.929 69.1961C164.929 67.7609 163.739 66.5974 162.272 66.5974C160.805 66.5974 159.616 67.7609 159.616 69.1961C159.616 70.6313 160.805 71.7947 162.272 71.7947Z" fill="#093631"/>
<path d="M175.72 71.7947C177.187 71.7947 178.376 70.6313 178.376 69.1961C178.376 67.7609 177.187 66.5974 175.72 66.5974C174.253 66.5974 173.063 67.7609 173.063 69.1961C173.063 70.6313 174.253 71.7947 175.72 71.7947Z" fill="#093631"/>
<path d="M189.167 71.7947C190.635 71.7947 191.824 70.6313 191.824 69.1961C191.824 67.7609 190.635 66.5974 189.167 66.5974C187.7 66.5974 186.511 67.7609 186.511 69.1961C186.511 70.6313 187.7 71.7947 189.167 71.7947Z" fill="#093631"/>
<path d="M121.93 85.1141C123.397 85.1141 124.586 83.9506 124.586 82.5154C124.586 81.0802 123.397 79.9167 121.93 79.9167C120.462 79.9167 119.273 81.0802 119.273 82.5154C119.273 83.9506 120.462 85.1141 121.93 85.1141Z" fill="#093631"/>
<path d="M135.377 85.1141C136.844 85.1141 138.034 83.9506 138.034 82.5154C138.034 81.0802 136.844 79.9167 135.377 79.9167C133.91 79.9167 132.72 81.0802 132.72 82.5154C132.72 83.9506 133.91 85.1141 135.377 85.1141Z" fill="#093631"/>
<path d="M148.825 85.1141C150.292 85.1141 151.481 83.9506 151.481 82.5154C151.481 81.0802 150.292 79.9167 148.825 79.9167C147.357 79.9167 146.168 81.0802 146.168 82.5154C146.168 83.9506 147.357 85.1141 148.825 85.1141Z" fill="#093631"/>
<path d="M162.272 85.1141C163.739 85.1141 164.929 83.9506 164.929 82.5154C164.929 81.0802 163.739 79.9167 162.272 79.9167C160.805 79.9167 159.616 81.0802 159.616 82.5154C159.616 83.9506 160.805 85.1141 162.272 85.1141Z" fill="#093631"/>
<path d="M175.72 85.1141C177.187 85.1141 178.376 83.9506 178.376 82.5154C178.376 81.0802 177.187 79.9167 175.72 79.9167C174.253 79.9167 173.063 81.0802 173.063 82.5154C173.063 83.9506 174.253 85.1141 175.72 85.1141Z" fill="#093631"/>
<path d="M189.167 85.1141C190.635 85.1141 191.824 83.9506 191.824 82.5154C191.824 81.0802 190.635 79.9167 189.167 79.9167C187.7 79.9167 186.511 81.0802 186.511 82.5154C186.511 83.9506 187.7 85.1141 189.167 85.1141Z" fill="#093631"/>
<path d="M68.1393 98.4336C69.6064 98.4336 70.7958 97.2702 70.7958 95.835C70.7958 94.3998 69.6064 93.2363 68.1393 93.2363C66.6721 93.2363 65.4827 94.3998 65.4827 95.835C65.4827 97.2702 66.6721 98.4336 68.1393 98.4336Z" fill="#093631"/>
<path d="M81.5868 98.4336C83.054 98.4336 84.2433 97.2702 84.2433 95.835C84.2433 94.3998 83.054 93.2363 81.5868 93.2363C80.1196 93.2363 78.9302 94.3998 78.9302 95.835C78.9302 97.2702 80.1196 98.4336 81.5868 98.4336Z" fill="#093631"/>
<path d="M95.0344 98.4336C96.5016 98.4336 97.691 97.2702 97.691 95.835C97.691 94.3998 96.5016 93.2363 95.0344 93.2363C93.5672 93.2363 92.3778 94.3998 92.3778 95.835C92.3778 97.2702 93.5672 98.4336 95.0344 98.4336Z" fill="#093631"/>
<path d="M108.482 98.4336C109.949 98.4336 111.138 97.2702 111.138 95.835C111.138 94.3998 109.949 93.2363 108.482 93.2363C107.015 93.2363 105.825 94.3998 105.825 95.835C105.825 97.2702 107.015 98.4336 108.482 98.4336Z" fill="#093631"/>
<path d="M121.93 98.4336C123.397 98.4336 124.586 97.2702 124.586 95.835C124.586 94.3998 123.397 93.2363 121.93 93.2363C120.462 93.2363 119.273 94.3998 119.273 95.835C119.273 97.2702 120.462 98.4336 121.93 98.4336Z" fill="#093631"/>
<path d="M135.377 98.4336C136.844 98.4336 138.034 97.2702 138.034 95.835C138.034 94.3998 136.844 93.2363 135.377 93.2363C133.91 93.2363 132.72 94.3998 132.72 95.835C132.72 97.2702 133.91 98.4336 135.377 98.4336Z" fill="#093631"/>
<path d="M148.825 98.4336C150.292 98.4336 151.481 97.2702 151.481 95.835C151.481 94.3998 150.292 93.2363 148.825 93.2363C147.357 93.2363 146.168 94.3998 146.168 95.835C146.168 97.2702 147.357 98.4336 148.825 98.4336Z" fill="#093631"/>
<path d="M162.272 98.4336C163.739 98.4336 164.929 97.2702 164.929 95.835C164.929 94.3998 163.739 93.2363 162.272 93.2363C160.805 93.2363 159.616 94.3998 159.616 95.835C159.616 97.2702 160.805 98.4336 162.272 98.4336Z" fill="#093631"/>
<path d="M175.72 98.4336C177.187 98.4336 178.376 97.2702 178.376 95.835C178.376 94.3998 177.187 93.2363 175.72 93.2363C174.253 93.2363 173.063 94.3998 173.063 95.835C173.063 97.2702 174.253 98.4336 175.72 98.4336Z" fill="#093631"/>
<path d="M189.167 98.4336C190.635 98.4336 191.824 97.2702 191.824 95.835C191.824 94.3998 190.635 93.2363 189.167 93.2363C187.7 93.2363 186.511 94.3998 186.511 95.835C186.511 97.2702 187.7 98.4336 189.167 98.4336Z" fill="#093631"/>
<path d="M68.1378 111.752C69.605 111.752 70.7944 110.589 70.7944 109.154C70.7944 107.719 69.605 106.555 68.1378 106.555C66.6706 106.555 65.4812 107.719 65.4812 109.154C65.4812 110.589 66.6706 111.752 68.1378 111.752Z" fill="#093631"/>
<path d="M81.5868 111.753C83.054 111.753 84.2433 110.59 84.2433 109.154C84.2433 107.719 83.054 106.556 81.5868 106.556C80.1196 106.556 78.9302 107.719 78.9302 109.154C78.9302 110.59 80.1196 111.753 81.5868 111.753Z" fill="#093631"/>
<path d="M68.1377 125.072C69.6048 125.072 70.7942 123.909 70.7942 122.473C70.7942 121.038 69.6048 119.875 68.1377 119.875C66.6705 119.875 65.4811 121.038 65.4811 122.473C65.4811 123.909 66.6705 125.072 68.1377 125.072Z" fill="#093631"/>
<path d="M81.5868 125.073C83.054 125.073 84.2433 123.909 84.2433 122.474C84.2433 121.039 83.054 119.875 81.5868 119.875C80.1196 119.875 78.9302 121.039 78.9302 122.474C78.9302 123.909 80.1196 125.073 81.5868 125.073Z" fill="#093631"/>
<path d="M108.482 125.073C109.949 125.073 111.138 123.909 111.138 122.474C111.138 121.039 109.949 119.875 108.482 119.875C107.015 119.875 105.825 121.039 105.825 122.474C105.825 123.909 107.015 125.073 108.482 125.073Z" fill="#093631"/>
<path d="M242.523 30.659H137.248C136.731 30.6584 136.235 30.4573 135.87 30.0998C135.504 29.7423 135.299 29.2576 135.298 28.752V3.20708C135.299 2.70149 135.504 2.21677 135.87 1.85926C136.235 1.50175 136.731 1.30064 137.248 1.30005H242.523C243.04 1.30064 243.536 1.50175 243.901 1.85926C244.267 2.21677 244.472 2.70149 244.473 3.20708V28.752C244.472 29.2576 244.267 29.7423 243.901 30.0998C243.536 30.4573 243.04 30.6584 242.523 30.659ZM137.248 2.06286C136.938 2.06319 136.64 2.18385 136.421 2.39836C136.202 2.61287 136.078 2.90372 136.078 3.20708V28.752C136.078 29.0554 136.202 29.3462 136.421 29.5607C136.64 29.7752 136.938 29.8959 137.248 29.8962H242.523C242.833 29.8959 243.131 29.7752 243.35 29.5607C243.569 29.3462 243.693 29.0554 243.693 28.752V3.20708C243.693 2.90372 243.569 2.61287 243.35 2.39836C243.131 2.18385 242.833 2.06319 242.523 2.06286H137.248Z" fill="#03110F"/>
<path d="M150.895 23.9888C155.417 23.9888 159.083 20.4028 159.083 15.9793C159.083 11.5557 155.417 7.96973 150.895 7.96973C146.372 7.96973 142.707 11.5557 142.707 15.9793C142.707 20.4028 146.372 23.9888 150.895 23.9888Z" fill="#093631"/>
<path d="M169.805 10.6396C169.443 10.6396 169.096 10.7803 168.84 11.0306C168.584 11.281 168.44 11.6205 168.44 11.9746C168.44 12.3286 168.584 12.6682 168.84 12.9185C169.096 13.1688 169.443 13.3095 169.805 13.3095H206.067C206.429 13.3095 206.776 13.1688 207.032 12.9185C207.288 12.6682 207.431 12.3286 207.431 11.9746C207.431 11.6205 207.288 11.281 207.032 11.0306C206.776 10.7803 206.429 10.6396 206.067 10.6396H169.805Z" fill="#093631" fill-opacity="0.55"/>
<path d="M169.805 18.6492C169.443 18.6492 169.096 18.7898 168.84 19.0402C168.584 19.2905 168.44 19.63 168.44 19.9841C168.44 20.3381 168.584 20.6777 168.84 20.928C169.096 21.1784 169.443 21.319 169.805 21.319H234.14C234.502 21.319 234.849 21.1784 235.105 20.928C235.361 20.6777 235.505 20.3381 235.505 19.9841C235.505 19.63 235.361 19.2905 235.105 19.0402C234.849 18.7898 234.502 18.6492 234.14 18.6492H169.805Z" fill="#093631" fill-opacity="0.55"/>
<path d="M107.225 82.5304H1.94954C1.43268 82.5298 0.937157 82.3287 0.571678 81.9711C0.2062 81.6136 0.000605733 81.1289 0 80.6233V55.0784C0.000605733 54.5728 0.2062 54.0881 0.571678 53.7306C0.937157 53.3731 1.43268 53.172 1.94954 53.1714H107.225C107.742 53.172 108.237 53.3731 108.603 53.7306C108.968 54.0881 109.174 54.5728 109.175 55.0784V80.6234C109.174 81.1289 108.968 81.6137 108.603 81.9712C108.237 82.3287 107.742 82.5298 107.225 82.5304ZM1.94954 53.9342C1.63942 53.9345 1.34209 54.0552 1.1228 54.2697C0.903503 54.4842 0.780155 54.7751 0.779817 55.0784V80.6234C0.780155 80.9267 0.903503 81.2176 1.1228 81.4321C1.34209 81.6466 1.63942 81.7672 1.94954 81.7676H107.225C107.535 81.7672 107.832 81.6466 108.052 81.4321C108.271 81.2176 108.394 80.9267 108.395 80.6234V55.0784C108.394 54.7751 108.271 54.4842 108.052 54.2697C107.832 54.0552 107.535 53.9345 107.225 53.9342H1.94954Z" fill="#03110F"/>
<path d="M15.5963 75.8601C20.1184 75.8601 23.7844 72.2741 23.7844 67.8506C23.7844 63.4271 20.1184 59.8411 15.5963 59.8411C11.0741 59.8411 7.4082 63.4271 7.4082 67.8506C7.4082 72.2741 11.0741 75.8601 15.5963 75.8601Z" fill="#093631"/>
<path d="M34.5069 62.511C34.145 62.511 33.7978 62.6516 33.5419 62.902C33.286 63.1523 33.1422 63.4919 33.1422 63.8459C33.1422 64.2 33.286 64.5395 33.5419 64.7898C33.7978 65.0402 34.145 65.1808 34.5069 65.1808H72.328C72.6899 65.1808 73.0371 65.0402 73.293 64.7898C73.5489 64.5395 73.6927 64.2 73.6927 63.8459C73.6927 63.4919 73.5489 63.1523 73.293 62.902C73.0371 62.6516 72.6899 62.511 72.328 62.511H34.5069Z" fill="#093631" fill-opacity="0.55"/>
<path d="M34.5069 70.5205C34.145 70.5205 33.7978 70.6612 33.5419 70.9115C33.286 71.1619 33.1422 71.5014 33.1422 71.8554C33.1422 72.2095 33.286 72.549 33.5419 72.7994C33.7978 73.0497 34.145 73.1904 34.5069 73.1904H98.8418C99.2037 73.1904 99.5508 73.0497 99.8068 72.7994C100.063 72.549 100.206 72.2095 100.206 71.8554C100.206 71.5014 100.063 71.1619 99.8068 70.9115C99.5508 70.6612 99.2037 70.5205 98.8418 70.5205H34.5069Z" fill="#093631" fill-opacity="0.55"/>
<path d="M202.363 138.597H97.0872C96.5704 138.596 96.0749 138.395 95.7094 138.038C95.3439 137.68 95.1383 137.196 95.1377 136.69V111.145C95.1383 110.639 95.3439 110.155 95.7094 109.797C96.0749 109.44 96.5704 109.239 97.0872 109.238H202.363C202.88 109.239 203.375 109.44 203.741 109.797C204.106 110.155 204.312 110.639 204.312 111.145V136.69C204.312 137.196 204.106 137.68 203.741 138.038C203.375 138.395 202.88 138.596 202.363 138.597ZM97.0872 110.001C96.7771 110.001 96.4798 110.122 96.2605 110.336C96.0412 110.551 95.9179 110.842 95.9175 111.145V136.69C95.9179 136.993 96.0412 137.284 96.2605 137.499C96.4798 137.713 96.7771 137.834 97.0872 137.834H202.363C202.673 137.834 202.97 137.713 203.189 137.499C203.409 137.284 203.532 136.993 203.532 136.69V111.145C203.532 110.842 203.409 110.551 203.189 110.336C202.97 110.122 202.673 110.001 202.363 110.001H97.0872Z" fill="#03110F"/>
<path d="M110.734 131.927C115.256 131.927 118.922 128.341 118.922 123.917C118.922 119.494 115.256 115.908 110.734 115.908C106.212 115.908 102.546 119.494 102.546 123.917C102.546 128.341 106.212 131.927 110.734 131.927Z" fill="#093631"/>
<path d="M129.645 118.578C129.283 118.578 128.936 118.718 128.68 118.969C128.424 119.219 128.28 119.559 128.28 119.913C128.28 120.267 128.424 120.606 128.68 120.856C128.936 121.107 129.283 121.247 129.645 121.247H164.346C164.708 121.247 165.055 121.107 165.311 120.856C165.567 120.606 165.711 120.267 165.711 119.913C165.711 119.559 165.567 119.219 165.311 118.969C165.055 118.718 164.708 118.578 164.346 118.578H129.645Z" fill="#093631" fill-opacity="0.55"/>
<path d="M129.645 126.587C129.283 126.587 128.936 126.728 128.68 126.978C128.424 127.229 128.28 127.568 128.28 127.922C128.28 128.276 128.424 128.616 128.68 128.866C128.936 129.117 129.283 129.257 129.645 129.257H193.979C194.341 129.257 194.689 129.117 194.944 128.866C195.2 128.616 195.344 128.276 195.344 127.922C195.344 127.568 195.2 127.229 194.944 126.978C194.689 126.728 194.341 126.587 193.979 126.587H129.645Z" fill="#093631" fill-opacity="0.55"/>
<path d="M236.82 131.48C236.574 131.309 236.381 131.17 236.246 131.072L241.185 80.7519C244.732 78.1346 248.352 77.9524 251.117 78.4354C252.525 78.6813 253.708 79.0998 254.539 79.4567C254.954 79.635 255.279 79.7973 255.499 79.9139C255.537 79.934 255.571 79.9527 255.603 79.9699L258.492 132.048C257.394 135.192 255.51 136.659 253.318 137.164C251.06 137.685 248.402 137.2 245.813 136.273C243.234 135.348 240.786 134.008 238.977 132.893C238.074 132.337 237.334 131.839 236.82 131.48Z" fill="#656176" stroke="#656176"/>
<path d="M258.015 177.147L264.388 177.213L262.796 195.183L258.015 195.183L258.015 177.147Z" fill="#CF9368"/>
<path d="M256.796 193.656H266.21C267.8 193.658 269.325 194.277 270.45 195.377C271.575 196.477 272.207 197.969 272.209 199.525V199.716H256.796V193.656Z" fill="#171717"/>
<path d="M240.738 177.147L233.683 177.147L235.957 195.183L240.737 195.183L240.738 177.147Z" fill="#CF9368"/>
<path d="M226.542 199.715V199.525C226.543 197.968 227.175 196.476 228.3 195.375C229.425 194.274 230.951 193.656 232.542 193.656L241.956 193.657L241.956 199.716L226.542 199.715Z" fill="#171717"/>
<path d="M257.584 192.07L249.235 144.462L241.5 191.456L233.662 191.882L231.572 128.917L231.73 128.883C233.026 128.599 263.522 122.047 268.521 131.42L268.546 131.468L264.374 192.284L257.584 192.07Z" fill="#171717"/>
<path d="M248.736 74.5282C254.025 74.5282 258.312 70.3341 258.312 65.1605C258.312 59.9868 254.025 55.7927 248.736 55.7927C243.447 55.7927 239.159 59.9868 239.159 65.1605C239.159 70.3341 243.447 74.5282 248.736 74.5282Z" fill="#CF9368"/>
<path d="M256.781 136.133C255.659 135.829 254.85 134.568 254.235 132.165C254.129 131.75 244.187 90.32 252.595 82.8139L254.533 77.5474L257.186 79.2771C258.124 79.2857 267.721 79.5233 268.541 85.5409C269.344 91.4311 271.53 130.895 269.333 133.35C269.29 133.404 269.235 133.448 269.173 133.479C269.11 133.51 269.042 133.527 268.972 133.529C266.745 133.529 266.069 131.112 265.91 130.342C265.381 130.556 263.804 131.344 261.213 133.879C259.607 135.45 258.349 136.202 257.309 136.202C257.13 136.203 256.953 136.18 256.781 136.133Z" fill="#1B998B"/>
<path d="M235.999 133.88C233.406 131.344 231.829 130.556 231.301 130.342C231.142 131.112 230.466 133.529 228.239 133.529C228.169 133.527 228.101 133.51 228.038 133.479C227.976 133.448 227.921 133.404 227.878 133.35C225.681 130.895 227.867 91.4313 228.67 85.5409C229.49 79.5233 239.087 79.2857 240.026 79.2771L242.678 77.5474L244.616 82.8139C253.024 90.3195 243.082 131.75 242.976 132.165C242.362 134.568 241.553 135.829 240.43 136.133C240.258 136.18 240.081 136.203 239.903 136.202C238.863 136.202 237.604 135.45 235.999 133.88Z" fill="#1B998B"/>
<path d="M256.642 70.5115C258.262 69.3716 259.489 67.7761 260.16 65.9375C260.83 64.0989 260.913 62.1041 260.396 60.2185C259.879 58.333 258.788 56.646 257.267 55.3819C255.746 54.1179 253.868 53.3367 251.882 53.1422C251.001 53.0559 250.051 53.0688 249.32 52.579C248.671 52.1439 248.321 51.3893 247.724 50.8872C247.345 50.6004 246.91 50.3932 246.445 50.2786C245.981 50.164 245.497 50.1445 245.024 50.2213C244.08 50.3804 243.165 50.6744 242.309 51.0938C240.186 52.0199 237.928 53.1597 236.962 55.2282C236.125 57.02 236.495 59.2294 237.679 60.8224C238.925 62.3989 240.742 63.4481 242.755 63.7538C244.756 64.0462 246.799 63.8662 248.714 63.2288C249.978 62.8398 251.226 62.3096 252.55 62.2663C253.584 62.2325 254.604 62.5002 255.482 63.0354C256.36 63.5705 257.055 64.349 257.479 65.2716C257.903 66.1943 258.037 67.2195 257.864 68.2168C257.69 69.2141 257.218 70.1385 256.506 70.8724" fill="#171717"/>
<path d="M204.445 126.239C204.998 126.226 205.543 126.107 206.049 125.888C206.555 125.67 207.012 125.356 207.394 124.965C207.776 124.573 208.075 124.112 208.275 123.608C208.474 123.103 208.571 122.565 208.558 122.025L214.142 112.807L209.828 108.938L203.945 118.019C202.859 118.121 201.857 118.631 201.148 119.442C200.439 120.252 200.079 121.3 200.144 122.365C200.208 123.43 200.693 124.428 201.495 125.151C202.297 125.873 203.355 126.263 204.445 126.239Z" fill="#CF9368"/>
<path d="M269.237 136.336C269.701 136.041 270.1 135.659 270.412 135.212C270.725 134.766 270.944 134.264 271.058 133.735C271.172 133.205 271.179 132.659 271.077 132.127C270.975 131.596 270.767 131.089 270.465 130.635L270.251 119.923L264.5 118.856L264.387 129.606C263.52 130.252 262.942 131.202 262.775 132.256C262.609 133.311 262.867 134.387 263.495 135.259C264.123 136.131 265.073 136.73 266.144 136.931C267.215 137.132 268.324 136.919 269.237 136.336Z" fill="#CF9368"/>
<path d="M206.144 111.418L206.079 111.317L206.143 111.215C214.52 98.0572 232.103 81.6207 232.28 81.4561L232.335 81.4043L234.507 81.3826L236.855 87.1037C236.124 88.479 216.425 115.37 213.824 117.153C213.617 117.293 213.382 117.39 213.135 117.435C212.887 117.481 212.633 117.475 212.387 117.418C211.954 117.32 211.542 117.148 211.169 116.91C208.769 115.456 206.267 111.608 206.144 111.418Z" fill="#1B998B"/>
<path d="M263.406 126.433C263.172 126.355 262.958 126.23 262.776 126.067C262.594 125.904 262.449 125.706 262.35 125.485C261.096 122.623 266.471 86.4663 266.701 84.9286L266.744 84.6377L268.561 85.764L268.579 85.8408C268.633 86.0717 273.926 109.105 272.491 124.411L272.481 124.52L272.379 124.567C272.16 124.666 267.751 126.646 264.813 126.646C264.334 126.659 263.858 126.586 263.406 126.433Z" fill="#1B998B"/>
<path d="M299.61 200H195.894C195.791 200 195.692 199.96 195.619 199.888C195.546 199.817 195.505 199.72 195.505 199.619C195.505 199.518 195.546 199.421 195.619 199.349C195.692 199.277 195.791 199.237 195.894 199.237H299.61C299.713 199.237 299.813 199.277 299.886 199.349C299.959 199.421 300 199.518 300 199.619C300 199.72 299.959 199.817 299.886 199.888C299.813 199.96 299.713 200 299.61 200Z" fill="#656176"/>
</g>
<defs>
<clipPath id="clip0_19_887">
<rect width="300" height="200" fill="white"/>
</clipPath>
</defs>
</svg>
